<svg xmlns="http://www.w3.org/2000/svg" width="1200" height="760" viewBox="0 0 1200 760">
  <defs>
    <marker id="arrow" markerWidth="10" markerHeight="10" refX="8" refY="3" orient="auto" markerUnits="strokeWidth">
      <path d="M0,0 L0,6 L9,3 z" fill="#333" />
    </marker>
    <style>
      .box { fill:#fff; stroke:#333; stroke-width:1.5; rx:12; }
      .decision { fill:#fff; stroke:#333; stroke-width:1.5; }
      .text { font-family: Arial, sans-serif; font-size: 15px; fill:#111; }
      .small { font-size: 13px; fill:#444; }
      .arrow { stroke:#333; stroke-width:1.5; fill:none; marker-end:url(#arrow); }
      .title { font-size: 24px; font-weight:bold; }
    </style>
  </defs>
  <text x="40" y="45" class="text title">AntCode v0.3.2 MVP Flow — Failure changes Strategy Structure</text>

  <rect x="60" y="90" width="220" height="58" class="box"/><text x="88" y="124" class="text">Goal / Work Capsule</text>
  <rect x="350" y="90" width="200" height="58" class="box"/><text x="392" y="124" class="text">ExperienceKey</text>
  <rect x="620" y="90" width="210" height="58" class="box"/><text x="668" y="124" class="text">Policy Sampler</text>
  <rect x="900" y="90" width="230" height="58" class="box"/><text x="945" y="124" class="text">StrategyGenome</text>

  <rect x="900" y="210" width="230" height="58" class="box"/><text x="962" y="244" class="text">Worker Attempt</text>
  <rect x="620" y="210" width="210" height="58" class="box"/><text x="674" y="244" class="text">RewardBundle</text>
  <rect x="330" y="210" width="240" height="58" class="box"/><text x="366" y="244" class="text">FailureMode Classifier</text>

  <rect x="80" y="330" width="230" height="58" class="box"/><text x="112" y="364" class="text">Positive Pheromone</text>
  <rect x="360" y="330" width="230" height="58" class="box"/><text x="388" y="364" class="text">Negative Pheromone</text>
  <polygon points="725,318 850,360 725,402 600,360" class="decision"/><text x="654" y="365" class="text">Mutation Threshold?</text>

  <rect x="890" y="330" width="230" height="58" class="box"/><text x="947" y="364" class="text">MutationEvent</text>
  <rect x="890" y="450" width="230" height="58" class="box"/><text x="922" y="484" class="text">Child StrategyGenome</text>
  <rect x="590" y="450" width="240" height="58" class="box"/><text x="622" y="484" class="text">Parent-child Tournament</text>
  <polygon points="440,438 565,480 440,522 315,480" class="decision"/><text x="407" y="485" class="text">Decision</text>

  <rect x="60" y="610" width="180" height="58" class="box"/><text x="106" y="644" class="text">Promote</text>
  <rect x="290" y="610" width="180" height="58" class="box"/><text x="338" y="644" class="text">Suppress</text>
  <rect x="520" y="610" width="180" height="58" class="box"/><text x="560" y="644" class="text">Quarantine</text>
  <rect x="750" y="610" width="180" height="58" class="box"/><text x="796" y="644" class="text">Keep Both</text>

  <path d="M280 119 L350 119" class="arrow"/>
  <path d="M550 119 L620 119" class="arrow"/>
  <path d="M830 119 L900 119" class="arrow"/>
  <path d="M1015 148 L1015 210" class="arrow"/>
  <path d="M900 239 L830 239" class="arrow"/>
  <path d="M620 239 L570 239" class="arrow"/>
  <path d="M410 268 L230 330" class="arrow"/>
  <path d="M450 268 L475 330" class="arrow"/>
  <path d="M570 239 C650 245 700 280 725 318" class="arrow"/>
  <path d="M850 360 L890 360" class="arrow"/>
  <path d="M1005 388 L1005 450" class="arrow"/>
  <path d="M890 479 L830 479" class="arrow"/>
  <path d="M590 480 L565 480" class="arrow"/>
  <path d="M350 510 L150 610" class="arrow"/>
  <path d="M410 522 L380 610" class="arrow"/>
  <path d="M500 510 L610 610" class="arrow"/>
  <path d="M565 480 C720 520 810 560 840 610" class="arrow"/>
  <path d="M240 639 C520 725 760 705 725 148" class="arrow"/>
  <text x="850" y="305" class="small">yes</text>
  <text x="657" y="420" class="small">no → resample later</text>
</svg>
